<!-- Generated by IcoMoon.io -->
<svg version="1.1" xmlns="http://www.w3.org/2000/svg" width="32" height="32" viewBox="0 0 32 32">
<title>additional_income</title>
<path d="M11.67 19.346c0-0.259-0.21-0.469-0.469-0.469v0h-4.546c-0.259 0-0.469 0.21-0.469 0.469v3.031c0 0.259 0.21 0.469 0.469 0.469h4.546c0.259 0 0.469-0.21 0.469-0.469v-3.030zM10.733 21.907h-3.609v-2.093h3.609v2.093zM22.819 21.835h2.525c0.259 0 0.469-0.21 0.469-0.469s-0.21-0.469-0.469-0.469v0h-2.526c-0.259 0-0.469 0.21-0.469 0.469s0.21 0.469 0.469 0.469v0zM22.819 19.815h2.525c0.259 0 0.469-0.21 0.469-0.469s-0.21-0.469-0.469-0.469v0h-2.526c-0.259 0-0.469 0.21-0.469 0.469s0.21 0.469 0.469 0.469v0z"></path>
<path d="M27.365 24.402c-0.259 0-0.469 0.21-0.469 0.469v0 6.029c0 0.090-0.073 0.163-0.163 0.163v0h-21.466c-0.090-0-0.162-0.073-0.162-0.163 0 0 0 0 0 0v0-10.373c0-0.259-0.21-0.469-0.469-0.469s-0.469 0.21-0.469 0.469v0 10.373c0 0.607 0.494 1.101 1.1 1.101h21.466c0.607-0.001 1.1-0.493 1.1-1.101v-6.029c0-0.259-0.21-0.469-0.469-0.469v0zM26.733 15.91h-7.739v-2.378c2.421-1.131 4.103-3.59 4.103-6.434 0-3.915-3.183-7.098-7.098-7.098-1.358 0-2.679 0.385-3.818 1.114-1.104 0.713-1.981 1.692-2.553 2.848l-0.019 0.042c-0.030 0.060-0.047 0.13-0.047 0.205 0 0.259 0.21 0.469 0.469 0.469 0.184 0 0.344-0.107 0.421-0.261l0.001-0.003c1.040-2.143 3.166-3.475 5.546-3.475 3.397 0 6.16 2.763 6.16 6.16s-2.763 6.161-6.16 6.161-6.16-2.763-6.16-6.16c0-0.24 0.014-0.481 0.041-0.717 0.002-0.016 0.003-0.035 0.003-0.054 0-0.259-0.21-0.469-0.469-0.469-0.24 0-0.438 0.18-0.466 0.413l-0 0.002c-0.030 0.246-0.047 0.531-0.047 0.82 0 0.002 0 0.004 0 0.005v-0c0 2.844 1.682 5.303 4.103 6.434v2.377h-7.739c-0.607 0.001-1.1 0.493-1.1 1.101v1.318c0 0.259 0.21 0.469 0.469 0.469s0.469-0.21 0.469-0.469v-1.318c0-0.090 0.073-0.163 0.163-0.163h6.101l4.279 4.891c0.086 0.098 0.212 0.16 0.353 0.16s0.266-0.062 0.352-0.159l4.28-4.892h6.101c0.090 0 0.162 0.073 0.162 0.163v5.661c0 0.259 0.21 0.469 0.469 0.469s0.469-0.21 0.469-0.469v0-5.661c-0.001-0.607-0.492-1.099-1.099-1.1h-0zM16 20.718l-3.386-3.87h0.861c0.259 0 0.469-0.21 0.469-0.469v0-2.487c0.614 0.193 1.32 0.304 2.052 0.304 0.002 0 0.004 0 0.006 0h-0c0.715 0 1.406-0.107 2.057-0.304v2.487c0 0.259 0.21 0.469 0.469 0.469h0.861l-3.386 3.871z"></path>
<path d="M6.656 27.454h1.263c0.259 0 0.469-0.21 0.469-0.469s-0.21-0.469-0.469-0.469v0h-1.263c-0.259 0-0.469 0.21-0.469 0.469s0.21 0.469 0.469 0.469v0zM11.202 26.517h-1.263c-0.259 0-0.469 0.21-0.469 0.469s0.21 0.469 0.469 0.469v0h1.263c0.259 0 0.469-0.21 0.469-0.469s-0.21-0.469-0.469-0.469v0zM14.485 27.454c0.259 0 0.469-0.21 0.469-0.469s-0.21-0.469-0.469-0.469v0h-1.263c-0.259 0-0.469 0.21-0.469 0.469s0.21 0.469 0.469 0.469v0h1.263zM17.767 27.454c0.259 0 0.469-0.21 0.469-0.469s-0.21-0.469-0.469-0.469v0h-1.263c-0.259 0-0.469 0.21-0.469 0.469s0.21 0.469 0.469 0.469v0h1.263zM6.656 29.98h5.051c0.259 0 0.469-0.21 0.469-0.469s-0.21-0.469-0.469-0.469v0h-5.051c-0.259 0-0.469 0.21-0.469 0.469s0.21 0.469 0.469 0.469v0zM19.825 28.248c0 0.955 0.777 1.731 1.731 1.731 0.497 0 0.946-0.211 1.263-0.549 0.316 0.337 0.765 0.549 1.263 0.549 0.954 0 1.731-0.777 1.731-1.731s-0.777-1.731-1.731-1.731c-0.498 0-0.947 0.211-1.263 0.549-0.316-0.338-0.765-0.549-1.262-0.549-0 0-0 0-0 0h0c-0.954 0-1.731 0.777-1.731 1.731zM24.082 27.454c0.429 0.012 0.773 0.363 0.773 0.794s-0.344 0.782-0.772 0.794l-0.001 0c-0.438 0-0.794-0.355-0.794-0.794v-0c0-0.438 0.356-0.794 0.794-0.794zM22.35 28.248c-0.012 0.429-0.363 0.773-0.794 0.773s-0.782-0.344-0.794-0.772l-0-0.001c0-0.438 0.356-0.794 0.794-0.794s0.794 0.357 0.794 0.794zM14.447 9.551c-0.071-0.045-0.157-0.072-0.25-0.072-0.259 0-0.469 0.21-0.469 0.469 0 0.16 0.081 0.302 0.204 0.386l0.002 0.001c0.606 0.397 1.020 0.514 1.555 0.544v0.517c0 0.259 0.21 0.469 0.469 0.469s0.469-0.21 0.469-0.469v-0.554c1.063-0.206 1.683-1.082 1.821-1.899 0.177-1.050-0.373-1.962-1.399-2.326-0.139-0.049-0.28-0.1-0.422-0.154v-2.248c0.358 0.084 0.571 0.265 0.589 0.281 0.083 0.075 0.193 0.121 0.315 0.121 0.259 0 0.469-0.21 0.469-0.469 0-0.136-0.058-0.258-0.15-0.344l-0-0c-0.027-0.025-0.48-0.433-1.222-0.543v-0.462c0-0.259-0.21-0.469-0.469-0.469s-0.469 0.21-0.469 0.469v0 0.497c-0.094 0.020-0.167 0.040-0.239 0.062l0.021-0.005c-0.675 0.203-1.181 0.782-1.317 1.509-0.126 0.663 0.087 1.302 0.554 1.669 0.248 0.194 0.558 0.373 0.981 0.561v2.848c-0.369-0.026-0.623-0.116-1.042-0.389zM15.086 5.794c-0.19-0.149-0.271-0.44-0.211-0.757 0.054-0.286 0.243-0.63 0.614-0.767v1.781c-0.154-0.082-0.286-0.167-0.41-0.262l0.007 0.005zM16.535 7.502c0.878 0.31 0.825 1.063 0.787 1.286-0.073 0.437-0.378 0.9-0.896 1.082v-2.406l0.109 0.039z"></path>
</svg>
