<!-- Generated by IcoMoon.io -->
<svg version="1.1" xmlns="http://www.w3.org/2000/svg" width="32" height="32" viewBox="0 0 32 32">
<title>calculator</title>
<path d="M27.25 0h-22.498c-1.554 0-2.814 1.259-2.816 2.813v26.375c0 1.552 1.261 2.813 2.813 2.813h22.499c1.553-0.002 2.811-1.26 2.813-2.813v-26.375c-0.002-1.552-1.259-2.81-2.811-2.813h-0zM28.187 29.187c-0.001 0.517-0.42 0.937-0.938 0.938h-22.498c-0.517-0.001-0.937-0.42-0.938-0.938v-26.375c0-0.517 0.421-0.938 0.938-0.938h22.496c0.517 0 0.938 0.421 0.938 0.938v26.374z"></path>
<path d="M25.376 3.75h-18.752c-0.517 0.001-0.936 0.42-0.936 0.938 0 0 0 0 0 0v0 7.624c0 0.518 0.419 0.938 0.938 0.938h18.749c0.518 0 0.938-0.42 0.938-0.938v0-7.624c0-0.518-0.42-0.938-0.938-0.938v0zM24.437 11.374h-16.874v-5.749h16.874v5.749zM10.374 15.125h-3.749c-0.518 0-0.938 0.42-0.938 0.938v3.75c0 0.517 0.419 0.938 0.938 0.938h3.749c0.518 0 0.938-0.42 0.938-0.938v0-3.75c0-0.518-0.42-0.938-0.938-0.938v0zM9.437 18.875h-1.874v-1.875h1.874v1.875zM10.374 22.624h-3.749c0 0 0 0 0 0-0.518 0-0.938 0.42-0.938 0.938 0 0.001 0 0.001 0 0.002v-0 3.749c0 0.518 0.419 0.938 0.938 0.938h3.749c0.518 0 0.938-0.42 0.938-0.938v0-3.749c0-0.518-0.42-0.938-0.938-0.938v0zM9.437 26.374h-1.874v-1.875h1.874v1.875zM17.875 15.125h-3.75c-0.518 0-0.938 0.42-0.938 0.938v3.75c0 0.517 0.421 0.938 0.938 0.938h3.75c0.518 0 0.938-0.42 0.938-0.938v0-3.75c0-0.518-0.42-0.938-0.938-0.938v0zM16.938 18.875h-1.875v-1.875h1.875v1.875zM17.875 22.624h-3.75c0 0 0 0 0 0-0.518 0-0.938 0.42-0.938 0.938 0 0.001 0 0.001 0 0.002v-0 3.749c0 0.518 0.421 0.938 0.938 0.938h3.75c0.518 0 0.938-0.42 0.938-0.938v0-3.749c0-0.518-0.42-0.938-0.938-0.938v0zM16.938 26.374h-1.875v-1.875h1.875v1.875zM25.376 15.125h-3.75c-0.518 0-0.938 0.42-0.938 0.938v0 11.25c0 0.518 0.419 0.938 0.938 0.938h3.749c0.518 0 0.938-0.42 0.938-0.938v0-11.248c0-0 0-0.001 0-0.002 0-0.518-0.42-0.938-0.938-0.938 0 0 0 0 0 0v0zM24.437 26.374h-1.874v-9.374h1.874v9.376z"></path>
</svg>
