<!-- Generated by IcoMoon.io -->
<svg version="1.1" xmlns="http://www.w3.org/2000/svg" width="32" height="32" viewBox="0 0 32 32">
<title>calendar</title>
<path d="M27.96 3.307h-2.099v-0.514c0-0.012 0.001-0.025 0.001-0.039 0-0.518-0.42-0.938-0.938-0.938s-0.938 0.42-0.938 0.938c0 0.014 0 0.027 0.001 0.041l-0-0.002v0.512h-2.587v-0.512c0-0.518-0.42-0.938-0.938-0.938s-0.938 0.42-0.938 0.938v0 0.512h-2.587v-0.512c0-0.518-0.42-0.938-0.938-0.938s-0.938 0.42-0.938 0.938v0.512h-2.587v-0.512c0-0.518-0.42-0.938-0.938-0.938s-0.938 0.42-0.938 0.938v0 0.512h-2.587v-0.512c-0.021-0.501-0.433-0.899-0.937-0.899s-0.915 0.398-0.937 0.897l-0 0.002v0.512h-2.099c-2.231 0.002-4.039 1.81-4.040 4.042v18.759c0.002 2.23 1.81 4.038 4.040 4.040h23.92c2.23-0.002 4.038-1.809 4.040-4.040v-18.762c-0.003-2.23-1.81-4.037-4.040-4.038h-0zM30.125 26.104c0 1.194-0.971 2.165-2.165 2.165h-23.92c-1.195-0.001-2.163-0.969-2.165-2.163v-15.335h28.25v15.334zM30.125 8.896h-28.25v-1.55c0-1.192 0.971-2.163 2.165-2.163h2.099v0.362c0.021 0.501 0.433 0.899 0.937 0.899s0.915-0.398 0.937-0.897l0-0.002v-0.36h2.587v0.362c0 0.518 0.42 0.938 0.938 0.938s0.938-0.42 0.938-0.938v0-0.362h2.587v0.362c0 0.518 0.42 0.938 0.938 0.938s0.938-0.42 0.938-0.938v0-0.362h2.587v0.362c0 0.518 0.42 0.938 0.938 0.938s0.938-0.42 0.938-0.938v0-0.362h2.587v0.362c-0 0.012-0.001 0.025-0.001 0.039 0 0.518 0.42 0.938 0.938 0.938s0.938-0.42 0.938-0.938c0-0.014-0-0.027-0.001-0.041l0 0.002v-0.362h2.099c1.194 0 2.165 0.971 2.165 2.163v1.552z"></path>
<path d="M10.451 12.771h-3.699c-0.518 0-0.938 0.42-0.938 0.938v0 3.827c0 0.517 0.419 0.938 0.938 0.938h3.699c0.518 0 0.938-0.42 0.938-0.938v-3.827c0-0.518-0.42-0.938-0.938-0.938v0zM9.514 16.598h-1.824v-1.952h1.824v1.952zM17.85 12.771h-3.699c-0.518 0-0.938 0.42-0.938 0.938v0 3.827c0 0.517 0.419 0.938 0.938 0.938h3.699c0.518 0 0.938-0.42 0.938-0.938v-3.827c0-0.518-0.42-0.938-0.938-0.938v0zM16.912 16.598h-1.824v-1.952h1.824v1.952zM25.248 12.771h-3.699c-0.518 0-0.938 0.42-0.938 0.938v0 3.827c0 0.517 0.421 0.938 0.938 0.938h3.699c0.518 0 0.938-0.42 0.938-0.938v-3.827c0-0.518-0.42-0.938-0.938-0.938v0zM24.31 16.598h-1.824v-1.952h1.824v1.952zM10.451 20.042h-3.699c-0.518 0-0.938 0.42-0.938 0.938v3.827c0 0.517 0.419 0.938 0.938 0.938h3.699c0.518 0 0.938-0.42 0.938-0.938v-3.827c0-0.518-0.42-0.938-0.938-0.938v0zM9.514 23.869h-1.824v-1.952h1.824v1.952zM17.85 20.042h-3.699c-0.518 0-0.938 0.42-0.938 0.938v0 3.827c0 0.517 0.419 0.938 0.938 0.938h3.699c0.518 0 0.938-0.42 0.938-0.938v-3.827c0-0.518-0.42-0.938-0.938-0.938v0zM16.912 23.869h-1.824v-1.952h1.824v1.952zM25.248 20.042h-3.699c-0.518 0-0.938 0.42-0.938 0.938v3.827c0 0.517 0.421 0.938 0.938 0.938h3.699c0.518 0 0.938-0.42 0.938-0.938v-3.827c0-0.518-0.42-0.938-0.938-0.938v0zM24.31 23.869h-1.824v-1.952h1.824v1.952z"></path>
</svg>
