<!-- Generated by IcoMoon.io -->
<svg version="1.1" xmlns="http://www.w3.org/2000/svg" width="32" height="32" viewBox="0 0 32 32">
<title>car</title>
<path d="M30.776 12.821l-0.697-0.739-2.448-6.598c-0.419-1.092-1.457-1.854-2.673-1.86h-17.484c-1.218 0.003-2.257 0.766-2.668 1.84l-0.007 0.020-2.414 6.516-1.005 0.93c-0.847 0.725-1.38 1.794-1.381 2.988v9.613c0.008 1.573 1.284 2.845 2.858 2.845 0 0 0 0 0 0h1.805c1.574-0 2.85-1.272 2.858-2.844v-1.395h16.958v1.394c0.008 1.573 1.284 2.844 2.858 2.845h1.807c1.573-0.001 2.849-1.272 2.857-2.844v-9.867c-0.006-1.118-0.474-2.126-1.223-2.843l-0.001-0.001zM6.086 5.949c0.217-0.564 0.755-0.957 1.384-0.957 0.002 0 0.003 0 0.004 0h17.49c0.615 0 1.169 0.383 1.389 0.957l2.133 5.744h-1.593c-0.343-2.278-2.287-4.004-4.634-4.004-0.245 0-0.485 0.019-0.719 0.055l0.026-0.003c-2.046 0.31-3.642 1.907-3.949 3.927l-0.003 0.026h-13.662l2.134-5.744zM25.497 11.693h-6.502c0.327-1.52 1.66-2.642 3.255-2.642 0.242 0 0.478 0.026 0.705 0.075l-0.022-0.004c1.289 0.282 2.286 1.281 2.56 2.55l0.004 0.022zM6.154 25.531c-0.005 0.817-0.669 1.477-1.487 1.477-0.002 0-0.003 0-0.005 0h-1.804c-0.001 0-0.003 0-0.004 0-0.818 0-1.481-0.66-1.487-1.477v-1.792c0.41 0.267 0.95 0.397 1.491 0.397h3.295v1.395zM30.633 25.531c-0.006 0.817-0.669 1.477-1.487 1.477-0.001 0-0.003 0-0.004 0h-1.804c-0.818-0.001-1.482-0.66-1.49-1.476v-1.395h3.295c0.541 0 1.080-0.13 1.491-0.397v1.791zM29.142 22.769h-26.283c-0.005 0-0.010 0-0.015 0-0.81 0-1.468-0.653-1.475-1.462v-5.389c0-0.752 0.335-1.47 0.91-1.955l0.027-0.027 0.93-0.875h25.894l0.657 0.704c0.006 0.014 0.027 0.021 0.034 0.034 0.496 0.47 0.805 1.132 0.807 1.867v5.641h0.007c-0.009 0.81-0.668 1.463-1.48 1.463-0.004 0-0.008 0-0.012-0h0.001z"></path>
<path d="M9.026 15.795h-5.129c-0.377 0.001-0.682 0.307-0.683 0.684v3.556c0.001 0.377 0.306 0.683 0.683 0.684h5.129c0.377-0.001 0.682-0.307 0.683-0.684v-3.556c-0.001-0.377-0.306-0.683-0.683-0.684h-0zM8.342 19.35h-3.76v-2.188h3.76v2.189zM28.103 15.795h-5.129c-0.377 0.001-0.683 0.307-0.684 0.684v3.556c0.001 0.377 0.307 0.683 0.684 0.684h5.128c0.377-0.001 0.683-0.307 0.684-0.684v-3.556c-0.001-0.377-0.307-0.683-0.684-0.684h-0zM27.419 19.35h-3.761v-2.188h3.76v2.189zM19.303 18.666h-6.606c-0.377 0.001-0.682 0.307-0.683 0.684v0c0.001 0.377 0.307 0.683 0.684 0.684h6.605c0.377-0.001 0.683-0.307 0.684-0.684v-0c-0.001-0.377-0.307-0.683-0.684-0.684h-0zM19.303 16.547h-6.606c-0.377 0.001-0.682 0.307-0.683 0.684v0c0.001 0.377 0.307 0.682 0.684 0.683h6.605c0.377-0.001 0.683-0.306 0.684-0.683v-0c-0.001-0.377-0.307-0.683-0.684-0.684h-0z"></path>
</svg>
