<!-- Generated by IcoMoon.io -->
<svg version="1.1" xmlns="http://www.w3.org/2000/svg" width="32" height="32" viewBox="0 0 32 32">
<title>clay</title>
<path d="M31.020 13.515h-1.907c-0.353 0-0.665 0.182-0.847 0.456-1.458-0.152-1.653-0.386-1.81-0.577-0.213-0.257-0.463-0.473-0.743-0.646l-0.013-0.007-4.383-2.662c-0.892-2.073-2.385-3.37-3.493-4.096-0.417-0.277-0.689-0.745-0.689-1.276 0-0.002 0-0.004 0-0.006v0c0-0.306 0.090-0.603 0.261-0.857l1.090-1.622c0.217-0.323 0.292-0.71 0.211-1.091-0.142-0.65-0.713-1.13-1.395-1.13h-5.178c-0 0-0 0-0.001 0-0.787 0-1.426 0.638-1.426 1.426 0 0.297 0.091 0.573 0.246 0.801l-0.003-0.005 1.090 1.622c0.171 0.254 0.261 0.551 0.261 0.857 0 0.52-0.257 0.999-0.689 1.282-1.642 1.077-5.31 4.25-3.923 10.451 0.774 3.459 1.371 5.897 1.731 7.071h-7.73c-0.638 0-1.195 0.453-1.325 1.077l-0.263 1.268c-0.083 0.401 0.017 0.813 0.274 1.13 0.249 0.306 0.626 0.499 1.048 0.499 0.001 0 0.002 0 0.003 0h26.594c0.001 0 0.002 0 0.003 0 0.422 0 0.798-0.194 1.046-0.497l0.002-0.002c0.189-0.23 0.304-0.528 0.304-0.853 0-0.098-0.011-0.194-0.030-0.287l0.002 0.009-0.264-1.269c-0.135-0.618-0.676-1.074-1.325-1.077h-7.729c0.107-0.351 0.237-0.818 0.387-1.396h0.509c0.001 0 0.001 0 0.002 0 1.569 0 3.082-0.242 4.503-0.692l-0.106 0.029 2.913-0.367c0.177 0.314 0.508 0.522 0.887 0.522h1.907c0.561-0 1.016-0.455 1.017-1.017v-6.054c0-0.56-0.456-1.017-1.017-1.017zM11.646 1.326c0.048-0.223 0.244-0.387 0.478-0.387 0 0 0.001 0 0.001 0h5.178c0 0 0.001 0 0.001 0 0.234 0 0.429 0.165 0.476 0.384l0.001 0.003c0.007 0.031 0.011 0.066 0.011 0.102 0 0.102-0.031 0.196-0.084 0.274l0.001-0.002-0.539 0.803h-4.912l-0.539-0.803c-0.052-0.076-0.083-0.17-0.083-0.271 0-0.036 0.004-0.072 0.012-0.106l-0.001 0.003zM12.117 6.768c0.674-0.446 1.113-1.202 1.113-2.059 0-0.003 0-0.005 0-0.008v0c0-0 0-0 0-0 0-0.466-0.129-0.901-0.354-1.272l0.006 0.011h3.663c-0.218 0.36-0.347 0.796-0.347 1.261 0 0 0 0 0 0v0c0 0.837 0.416 1.609 1.113 2.066 0.287 0.189 0.603 0.419 0.926 0.695h-7.043c0.274-0.237 0.575-0.465 0.89-0.675l0.033-0.021zM28.154 24.775l0.264 1.268c0.006 0.026 0.009 0.056 0.009 0.087 0 0.099-0.035 0.191-0.094 0.262l0.001-0.001c-0.076 0.094-0.191 0.153-0.32 0.153-0.001 0-0.002 0-0.003 0h-26.594c-0.001 0-0.001 0-0.002 0-0.129 0-0.244-0.060-0.32-0.153l-0.001-0.001c-0.058-0.070-0.094-0.161-0.094-0.261 0-0.030 0.003-0.060 0.010-0.089l-0 0.003 0.264-1.269c0.040-0.191 0.211-0.33 0.407-0.33h26.066c0.196 0 0.367 0.139 0.407 0.331zM19.034 23.506h-8.64c-0.193-0.575-0.683-2.285-1.8-7.275-0.471-2.104-0.358-4.009 0.333-5.676h1.726c0.259 0 0.469-0.21 0.469-0.469s-0.21-0.469-0.469-0.469v0h-1.262c0.265-0.457 0.559-0.861 0.865-1.217h8.919c0.306 0.357 0.6 0.761 0.863 1.216h-7.507c-0.259 0-0.469 0.21-0.469 0.469s0.21 0.469 0.469 0.469v0h6.211c-0.070 0.167-0.111 0.361-0.111 0.565 0 0.128 0.016 0.252 0.046 0.371l-0.002-0.010c0.096 0.39 0.338 0.719 0.681 0.927l0.806 0.49h-5.21c-0.827 0-1.498 0.636-1.527 1.449-0.008 0.217 0.030 0.427 0.109 0.621h-0.481c-0.002 0-0.004 0-0.006 0-0.423 0-0.805 0.176-1.076 0.459l-0.001 0.001c-0.261 0.269-0.422 0.637-0.422 1.043 0 0.663 0.431 1.226 1.028 1.423l0.011 0.003c-0.091 0.188-0.144 0.409-0.144 0.642 0 0.83 0.672 1.503 1.502 1.505h0.71c-0.069 0.167-0.11 0.361-0.11 0.564 0 0.83 0.672 1.503 1.502 1.505h3.389c-0.197 0.746-0.324 1.163-0.402 1.396zM25.154 20.523c-0.030 0.004-0.058 0.010-0.084 0.018l0.003-0.001c-1.243 0.402-2.674 0.633-4.158 0.633-0.001 0-0.001 0-0.002 0h-4.866c-0.305-0.010-0.548-0.26-0.548-0.566s0.243-0.556 0.547-0.566l0.001-0h3.073c0.259 0 0.469-0.21 0.469-0.469s-0.21-0.469-0.469-0.469v0h-5.176c-0.299-0.017-0.536-0.264-0.536-0.566s0.236-0.549 0.534-0.566l0.002-0h5.176c0.259 0 0.469-0.21 0.469-0.469s-0.21-0.469-0.469-0.469v0h-6.043c-0.315 0-0.579-0.245-0.59-0.545-0-0.007-0-0.015-0-0.023 0-0.311 0.252-0.564 0.564-0.564 0.001 0 0.002 0 0.002 0h6.068c0.259 0 0.469-0.21 0.469-0.469s-0.21-0.469-0.469-0.469v0h-4.193c-0.001 0-0.001 0-0.002 0-0.159 0-0.303-0.066-0.405-0.173l-0-0c-0.098-0.101-0.159-0.24-0.159-0.392 0-0.008 0-0.016 0-0.023l-0 0.001c0.011-0.3 0.275-0.545 0.59-0.545h6.461c0.266 0 0.494-0.173 0.566-0.429 0.014-0.048 0.023-0.104 0.023-0.161 0-0.211-0.112-0.396-0.281-0.498l-0.003-0.001-1.876-1.139c-0.127-0.077-0.219-0.2-0.255-0.345l-0.001-0.004c-0.010-0.040-0.016-0.086-0.016-0.133 0-0.313 0.254-0.567 0.567-0.567 0.108 0 0.208 0.030 0.294 0.082l-0.003-0.001 4.786 2.907c0.197 0.12 0.372 0.271 0.52 0.45 0.383 0.463 0.875 0.741 2.362 0.903v5.255l-2.942 0.371zM31.099 20.586c0 0.044-0.035 0.079-0.079 0.079v0h-1.907c-0.043-0-0.079-0.035-0.079-0.079v-6.055c0-0.043 0.035-0.079 0.079-0.079h1.907c0.043 0 0.079 0.035 0.079 0.079v6.054zM22.477 30.488l-2.441-1.965c-0.080-0.064-0.182-0.103-0.294-0.103-0.259 0-0.469 0.21-0.469 0.469 0 0.147 0.068 0.279 0.174 0.365l0.001 0.001 2.248 1.808h-13.965l2.253-1.811c0.107-0.087 0.175-0.218 0.175-0.365 0-0.259-0.21-0.469-0.469-0.469-0.112 0-0.214 0.039-0.295 0.104l0.001-0.001-2.446 1.967c-0.195 0.155-0.319 0.393-0.319 0.659 0 0.103 0.018 0.201 0.052 0.292l-0.002-0.006c0.121 0.345 0.436 0.567 0.802 0.567h14.461c0.366 0 0.68-0.223 0.802-0.567 0.032-0.085 0.050-0.183 0.050-0.286 0-0.266-0.124-0.503-0.317-0.657l-0.002-0.001z"></path>
</svg>
