<!-- Generated by IcoMoon.io -->
<svg version="1.1" xmlns="http://www.w3.org/2000/svg" width="32" height="32" viewBox="0 0 32 32">
<title>cocktail</title>
<path d="M7.734 2.7c-0.262 0-0.474 0.212-0.474 0.474v0.201c0.009 0.255 0.218 0.458 0.475 0.458s0.465-0.203 0.475-0.458l0-0.001v-0.201c0-0.262-0.212-0.475-0.474-0.475h-0zM6.354 4.281h-0.201c-0.262 0-0.475 0.213-0.475 0.475s0.213 0.475 0.475 0.475v0h0.201c0.262 0 0.475-0.213 0.475-0.475s-0.213-0.475-0.475-0.475v0zM7.094 3.444l-0.142-0.142c-0.086-0.086-0.205-0.139-0.336-0.139-0.262 0-0.475 0.213-0.475 0.475 0 0.131 0.053 0.25 0.139 0.336l0.142 0.142c0.086 0.086 0.205 0.14 0.336 0.14s0.25-0.053 0.336-0.14l0-0c0.086-0.086 0.139-0.205 0.139-0.336s-0.053-0.25-0.139-0.336v0zM7.094 5.397c-0.086-0.086-0.205-0.139-0.336-0.139s-0.25 0.053-0.336 0.139v0l-0.142 0.142c-0.086 0.086-0.139 0.205-0.139 0.336 0 0.262 0.213 0.475 0.475 0.475 0.131 0 0.25-0.053 0.336-0.139l0.142-0.142c0.086-0.086 0.139-0.205 0.139-0.336s-0.053-0.25-0.139-0.336v0z"></path>
<path d="M28.455 3.916h-16.040c-0.194-1.058-0.714-1.97-1.452-2.651l-0.003-0.003c-0.843-0.782-1.975-1.262-3.22-1.262-0.002 0-0.004 0-0.006 0h0c-2.622 0-4.756 2.134-4.756 4.756s2.134 4.756 4.756 4.756c0.482 0 0.954-0.073 1.411-0.215 0.709 0.67 1.586 1.171 2.561 1.431l0.042 0.009c0.645 0.172 1.133 0.697 1.25 1.35l0.002 0.010 0.604 3.496c0.219 1.26 0.928 2.323 1.919 3.005l0.015 0.010c0.785 0.537 1.253 1.414 1.253 2.345v7.125c-0.359 0.23-0.594 0.627-0.594 1.079 0 0.014 0 0.028 0.001 0.041l-0-0.002c-1.186 0.242-2.163 0.466-2.905 0.663-0.505 0.135-0.887 0.254-1.166 0.365-0.259 0.102-0.743 0.293-0.743 0.735 0 0.594 0.773 0.696 1.394 0.778 0.534 0.070 1.273 0.129 2.198 0.174 1.562 0.077 3.145 0.089 3.16 0.089h0.008c0.016 0 1.598-0.013 3.16-0.089 0.925-0.045 1.665-0.103 2.198-0.174 0.621-0.082 1.394-0.183 1.394-0.778 0-0.47-0.434-0.713-2.018-1.129-0.96-0.251-2.156-0.506-3.015-0.68-0.001-0.343-0.137-0.663-0.374-0.898v-7.301c0-0.93 0.469-1.807 1.253-2.345 1.007-0.692 1.716-1.755 1.931-2.988l0.004-0.027 0.603-3.496c0.119-0.663 0.607-1.188 1.239-1.357l0.012-0.003c2.135-0.57 3.778-2.233 4.307-4.339l0.009-0.041c0.002-0.008 0.005-0.016 0.006-0.024 0.109-0.453 0.168-0.924 0.168-1.406v-0.443c0-0.313-0.253-0.567-0.566-0.567h-0zM7.734 8.562c-2.101-0.003-3.803-1.705-3.806-3.805v-0c0.003-2.101 1.705-3.803 3.805-3.806h0c0.96 0 1.877 0.358 2.581 1.009 0.552 0.51 0.952 1.178 1.126 1.932l0.005 0.026h-0.487c-0.387-1.445-1.684-2.492-3.225-2.494h-0c-1.84 0.002-3.332 1.494-3.334 3.334v0c0.003 1.841 1.496 3.332 3.338 3.332 0.143 0 0.285-0.009 0.423-0.027l-0.017 0.002c0.091 0.149 0.189 0.293 0.292 0.433-0.211 0.042-0.454 0.066-0.703 0.066h-0zM9.189 3.303c-0.086-0.086-0.205-0.139-0.336-0.139s-0.25 0.053-0.336 0.139v0l-0.142 0.142c-0.086 0.086-0.139 0.204-0.139 0.335 0 0.049 0.007 0.096 0.021 0.14l-0.001-0.003h-0.43c-0.313 0.001-0.566 0.254-0.566 0.567 0 0 0 0 0 0v0 0.443c0 0.482 0.058 0.952 0.167 1.406l0.006 0.026c0.066 0.267 0.149 0.529 0.249 0.781-1.293-0.031-2.33-1.086-2.331-2.383v-0c0-1.315 1.069-2.385 2.384-2.385 1.015 0.001 1.881 0.635 2.226 1.528l0.006 0.016h-0.73c0.057-0.077 0.091-0.174 0.091-0.279 0-0.131-0.053-0.249-0.139-0.335v0zM19.606 30.069c1.669 0.336 2.717 0.59 3.373 0.774-1.2 0.118-3.124 0.195-4.838 0.208-1.714-0.013-3.638-0.090-4.838-0.208 0.627-0.176 1.613-0.417 3.158-0.731 0.398-0.087 0.691-0.437 0.691-0.855 0-0.026-0.001-0.052-0.003-0.078l0 0.003c-0.001-0.008-0.001-0.017-0.001-0.025 0-0.15 0.101-0.276 0.239-0.315l0.002-0.001c0.205-0.056 0.353-0.24 0.353-0.458 0-0 0-0 0-0v0-7.43c-0.001-0.648-0.166-1.258-0.456-1.79l0.010 0.020c0.265 0.017 0.555 0.026 0.845 0.026s0.58-0.009 0.845-0.026c-0.28 0.512-0.445 1.122-0.446 1.771v7.526c0 0.162 0.083 0.314 0.221 0.401 0.093 0.058 0.153 0.16 0.153 0.276 0 0.007-0 0.015-0.001 0.022l0-0.001c-0.001 0.014-0.001 0.031-0.001 0.047 0 0.416 0.296 0.764 0.688 0.843l0.006 0.001zM28.072 4.926c0 0.286-0.024 0.566-0.070 0.84h-14.293c-0.262 0-0.475 0.213-0.475 0.475s0.213 0.475 0.475 0.475v0h14.036c-0.588 1.526-1.852 2.675-3.415 3.093l-0.035 0.008c-1.004 0.268-1.764 1.085-1.946 2.102l-0.002 0.016-0.603 3.495c-0.174 1-0.737 1.844-1.524 2.385l-0.012 0.008c-0.127 0.087-0.505 0.291-0.574 0.322-0.376 0.148-2.602 0.148-2.98 0-0.232-0.116-0.421-0.223-0.603-0.339l0.028 0.017c-0.8-0.549-1.363-1.393-1.533-2.371l-0.003-0.022-0.603-3.495c-0.184-1.033-0.944-1.849-1.93-2.113l-0.019-0.004c-0.926-0.246-1.72-0.722-2.344-1.364l-0.001-0.001c-0.47-0.483-0.845-1.061-1.093-1.702l-0.012-0.035h2.962c0.255-0.009 0.458-0.218 0.458-0.475s-0.203-0.465-0.458-0.475l-0.001-0h-3.219c-0.045-0.253-0.070-0.544-0.070-0.841v-0.061h19.863v0.061z"></path>
</svg>
