<!-- Generated by IcoMoon.io -->
<svg version="1.1" xmlns="http://www.w3.org/2000/svg" width="32" height="32" viewBox="0 0 32 32">
<title>couch</title>
<path d="M30.414 11.952h-0.636v-2.363c-0.002-1.398-1.135-2.532-2.533-2.533h-9.181c-0.849 0-1.6 0.419-2.059 1.060l-0.005 0.008c-0.464-0.649-1.216-1.067-2.065-1.067h-5.767c-0.259 0-0.469 0.21-0.469 0.469s0.21 0.469 0.469 0.469v0h5.767c0.881 0.001 1.595 0.715 1.596 1.596v4.688c-0.010-0.010-0.021-0.018-0.030-0.027-0.542-0.503-1.268-0.813-2.068-0.817h-7.809c-0.050-0.644-0.473-1.178-1.052-1.389l-0.011-0.004c-0.154-0.056-0.331-0.088-0.516-0.088-0.001 0-0.003 0-0.004 0h-0.881v-2.363c0.001-0.881 0.715-1.595 1.595-1.596h1.538c0.259 0 0.469-0.21 0.469-0.469s-0.21-0.469-0.469-0.469v0h-1.539c-1.398 0.002-2.532 1.135-2.533 2.533v2.363h-0.635c-0.875 0.001-1.584 0.71-1.586 1.586v4.894c0.002 1.823 1.48 3.301 3.303 3.303h0.236l-0.514 1.382c-0.323 0.871 0.343 1.827 1.27 1.827h0.754c0.422 0 0.826-0.201 1.081-0.537l2.021-2.672h15.699l2.021 2.671c0.254 0.337 0.658 0.538 1.081 0.538h0.754c0.929 0 1.594-0.957 1.27-1.827l-0.514-1.382h0.236c1.823-0.002 3.301-1.48 3.303-3.303v-4.894c-0.001-0.875-0.71-1.584-1.586-1.586h-0zM16.469 9.589c0.001-0.881 0.715-1.595 1.596-1.596h9.181c0.881 0.001 1.594 0.715 1.595 1.596v2.363h-0.882c-0.623 0-1.221 0.4-1.463 0.974-0.068 0.161-0.109 0.333-0.12 0.507h-7.807c-0.815 0.005-1.553 0.325-2.101 0.845l0.001-0.001v-4.688zM5.629 14.37h7.804c1.159 0.001 2.098 0.94 2.099 2.099v0.666h-9.904v-2.766zM5.383 23.841c-0.077 0.101-0.198 0.165-0.333 0.166h-0.754c-0.23-0.003-0.416-0.19-0.416-0.421 0-0.051 0.009-0.1 0.026-0.145l-0.001 0.003 0.635-1.709h2.437l-1.593 2.106zM27.706 24.006h-0.754c-0.136-0-0.256-0.065-0.332-0.165l-0.001-0.001-1.593-2.106h2.437l0.635 1.709c0.015 0.042 0.024 0.091 0.024 0.141 0 0.231-0.185 0.418-0.415 0.422h-0zM28.698 20.797h-25.395c-1.306-0.001-2.364-1.059-2.366-2.365v-4.894c0-0.358 0.291-0.649 0.649-0.649h2.456c0.358 0 0.649 0.291 0.649 0.649v4.067c0 0.259 0.21 0.469 0.469 0.469h17.217c0.259 0 0.469-0.21 0.469-0.469s-0.21-0.469-0.469-0.469v0h-5.907v-0.667c0.001-1.159 0.94-2.098 2.099-2.099h7.805v2.766h-2.121c-0.259 0-0.469 0.21-0.469 0.469s0.21 0.469 0.469 0.469v0h2.59c0.259 0 0.469-0.21 0.469-0.469v0-4.067c0-0.358 0.291-0.649 0.649-0.649h2.455c0.358 0 0.649 0.291 0.649 0.649v4.894c-0.001 1.306-1.059 2.364-2.365 2.366h-0z"></path>
</svg>
