<!-- Generated by IcoMoon.io -->
<svg version="1.1" xmlns="http://www.w3.org/2000/svg" width="32" height="32" viewBox="0 0 32 32">
<title>invoice</title>
<path d="M30.679 0h-29.358c-0.451 0-0.819 0.369-0.819 0.819s0.369 0.819 0.819 0.819h1.768v29.521c0 0.301 0.164 0.581 0.43 0.724s0.587 0.13 0.84-0.041l3.557-2.369 3.57 2.376c0.127 0.087 0.285 0.138 0.454 0.138s0.327-0.052 0.457-0.14l-0.003 0.002 3.557-2.369 3.571 2.376c0.127 0.086 0.285 0.138 0.454 0.138s0.326-0.052 0.457-0.14l-0.003 0.002 3.557-2.369 3.571 2.376c0.137 0.089 0.294 0.137 0.45 0.137 0.13 0 0.266-0.034 0.389-0.095 0.266-0.143 0.43-0.423 0.43-0.724l-0.014-29.522h1.864c0.451 0 0.819-0.369 0.819-0.819s-0.369-0.84-0.819-0.84zM27.197 29.631l-2.751-1.83c-0.128-0.087-0.285-0.138-0.454-0.138s-0.327 0.052-0.457 0.14l0.003-0.002-3.557 2.376-3.571-2.376c-0.127-0.086-0.285-0.138-0.454-0.138s-0.326 0.052-0.457 0.14l0.003-0.002-3.557 2.369-3.571-2.369c-0.127-0.087-0.285-0.138-0.454-0.138s-0.327 0.052-0.457 0.14l0.003-0.002-2.738 1.823v-27.992h22.462l0.007 27.999z"></path>
<path d="M8.497 13.081h8.582c0.45 0 0.819-0.369 0.819-0.819s-0.369-0.819-0.819-0.819h-8.582c-0.45 0-0.819 0.369-0.819 0.819 0 0.001 0 0.001 0 0.002 0 0.451 0.366 0.817 0.817 0.817 0.001 0 0.002 0 0.002 0h-0zM8.497 15.929h6.431c0.451 0 0.819-0.369 0.819-0.819s-0.369-0.819-0.819-0.819h-6.431c-0.45 0-0.819 0.369-0.819 0.819 0 0.001 0 0.001 0 0.002 0 0.451 0.366 0.817 0.817 0.817 0.001 0 0.002 0 0.002 0h-0zM21.366 13.081h2.144c0.45 0 0.819-0.369 0.819-0.819s-0.369-0.819-0.819-0.819h-2.145c-0.45 0-0.819 0.369-0.819 0.819 0 0.001 0 0.001 0 0.002 0 0.451 0.366 0.817 0.817 0.817 0.001 0 0.002 0 0.002 0h-0zM21.366 15.929h2.144c0.45 0 0.819-0.369 0.819-0.819s-0.369-0.819-0.819-0.819h-2.145c-0.45 0-0.819 0.369-0.819 0.819 0 0.001 0 0.001 0 0.002 0 0.451 0.366 0.817 0.817 0.817 0.001 0 0.002 0 0.002 0h-0zM8.497 6.506h8.582c0.45 0 0.819-0.369 0.819-0.819s-0.369-0.819-0.819-0.819h-8.582c-0.45 0-0.819 0.369-0.819 0.819 0 0.001 0 0.001 0 0.002 0 0.451 0.366 0.817 0.817 0.817 0.001 0 0.002 0 0.002 0h-0zM8.497 9.347h6.431c0.451 0 0.819-0.369 0.819-0.819s-0.369-0.819-0.819-0.819h-6.431c-0.45 0-0.819 0.369-0.819 0.819 0 0.001 0 0.001 0 0.002 0 0.451 0.366 0.817 0.817 0.817 0.001 0 0.002 0 0.002 0h-0zM21.366 6.506h2.144c0.45 0 0.819-0.369 0.819-0.819s-0.369-0.819-0.819-0.819h-2.145c-0.45 0-0.819 0.369-0.819 0.819 0 0.001 0 0.001 0 0.002 0 0.451 0.366 0.817 0.817 0.817 0.001 0 0.002 0 0.002 0h-0zM21.366 9.347h2.144c0.45 0 0.819-0.369 0.819-0.819s-0.369-0.819-0.819-0.819h-2.145c-0.45 0-0.819 0.369-0.819 0.819 0 0.001 0 0.001 0 0.002 0 0.451 0.366 0.817 0.817 0.817 0.001 0 0.002 0 0.002 0h-0zM8.497 19.738h8.582c0.45 0 0.819-0.369 0.819-0.819s-0.369-0.819-0.819-0.819h-8.582c-0.45 0-0.819 0.369-0.819 0.819 0 0 0 0.001 0 0.002 0 0.451 0.366 0.817 0.817 0.817 0.001 0 0.002 0 0.002 0h-0zM8.497 22.578h6.431c0.451 0 0.819-0.369 0.819-0.819s-0.369-0.819-0.819-0.819h-6.431c-0.45 0-0.819 0.369-0.819 0.819 0 0.001 0 0.001 0 0.002 0 0.451 0.366 0.817 0.817 0.817 0.001 0 0.002 0 0.002 0h-0zM21.366 19.738h2.144c0.45 0 0.819-0.369 0.819-0.819s-0.369-0.819-0.819-0.819h-2.145c-0.45 0-0.819 0.369-0.819 0.819 0 0 0 0.001 0 0.002 0 0.451 0.366 0.817 0.817 0.817 0.001 0 0.002 0 0.002 0h-0zM21.366 22.578h2.144c0.45 0 0.819-0.369 0.819-0.819s-0.369-0.819-0.819-0.819h-2.145c-0.45 0-0.819 0.369-0.819 0.819 0 0.001 0 0.001 0 0.002 0 0.451 0.366 0.817 0.817 0.817 0.001 0 0.002 0 0.002 0h-0z"></path>
</svg>
