<!-- Generated by IcoMoon.io -->
<svg version="1.1" xmlns="http://www.w3.org/2000/svg" width="32" height="32" viewBox="0 0 32 32">
<title>kite</title>
<path d="M30.281 15.724l-1.286-1.286v-12.227l1.080-1.080c0.102-0.099 0.165-0.236 0.165-0.389 0-0.299-0.243-0.542-0.542-0.542-0.153 0-0.291 0.063-0.389 0.165l-0 0-1.081 1.078h-12.229l-1.285-1.285c-0.099-0.105-0.239-0.17-0.395-0.17-0.3 0-0.542 0.243-0.542 0.542 0 0.155 0.065 0.296 0.17 0.395l0 0 1.23 1.23-3.815 16.168c-0.211 0.261-0.339 0.597-0.339 0.963 0 0.743 0.526 1.363 1.226 1.507l0.010 0.002 2.433 0.494c0.469 0.097 0.854 0.392 1.072 0.792l0.004 0.008c0.223 0.415 0.249 0.903 0.072 1.339-0.24 0.583-0.804 0.985-1.461 0.985-0.116 0-0.229-0.013-0.338-0.036l0.010 0.002-9.116-1.931c-0.173-0.038-0.372-0.060-0.576-0.060-1.214 0-2.249 0.772-2.638 1.853l-0.006 0.020c-0.1 0.275-0.157 0.593-0.157 0.924 0 0.513 0.138 0.993 0.379 1.407l-0.007-0.013c0.404 0.694 1.079 1.191 1.877 1.35l0.018 0.003 0.038 0.007c0.73 0.143 1.331 0.599 1.667 1.22l0.006 0.013c0.181 0.33 0.287 0.723 0.287 1.141 0 0.338-0.070 0.659-0.195 0.951l0.006-0.016c-0.024 0.059-0.039 0.128-0.039 0.201 0 0.299 0.243 0.542 0.542 0.542 0.22 0 0.41-0.131 0.495-0.32l0.001-0.003c0.173-0.4 0.274-0.865 0.274-1.354 0-0.605-0.154-1.175-0.426-1.671l0.009 0.018c-0.496-0.918-1.367-1.579-2.401-1.782l-0.022-0.004-0.038-0.007c-0.797-0.157-1.389-0.85-1.389-1.681 0-0.203 0.035-0.398 0.1-0.579l-0.004 0.012c0.242-0.674 0.875-1.147 1.619-1.147 0.125 0 0.246 0.013 0.363 0.039l-0.011-0.002 9.116 1.931c0.166 0.037 0.357 0.058 0.553 0.058 1.109 0 2.060-0.679 2.459-1.645l0.006-0.018c0.124-0.296 0.196-0.64 0.196-1 0-0.461-0.118-0.895-0.324-1.272l0.007 0.014c-0.374-0.688-1.024-1.186-1.798-1.347l-0.017-0.003-2.433-0.494c-0.167-0.033-0.299-0.155-0.346-0.313l-0.001-0.003c-0.013-0.040-0.020-0.087-0.020-0.135 0-0.080 0.021-0.156 0.058-0.221l-0.001 0.002 16.118-3.803 1.231 1.23c0.098 0.098 0.233 0.159 0.383 0.159s0.285-0.061 0.383-0.159v0c0.098-0.098 0.159-0.234 0.159-0.383s-0.061-0.285-0.159-0.383v0zM27.145 2.528l-5.031 5.030-5.030-5.030h10.061zM16.081 3.057l5.267 5.268-8.522 8.522 3.254-13.79zM13.593 17.613l8.521-8.522 5.268 5.267-13.79 3.254zM27.911 13.354l-5.030-5.030 5.030-5.030v10.059z"></path>
</svg>
