<!-- Generated by IcoMoon.io -->
<svg version="1.1" xmlns="http://www.w3.org/2000/svg" width="37" height="32" viewBox="0 0 37 32">
<title>products</title>
<path d="M14.798 11.897c-0.29-0.316-0.703-0.516-1.162-0.524l-0.001-0c-0.006-0-0.014-0-0.022-0-0.882 0-1.598 0.706-1.617 1.583l-0 0.002c-0 0.007-0.001 0.015-0.001 0.023 0 0.286 0.232 0.518 0.518 0.518s0.518-0.232 0.518-0.518c0-0.002 0-0.004-0-0.006v0c0.005-0.314 0.261-0.567 0.575-0.567 0.168 0 0.32 0.072 0.425 0.188l0 0c0.095 0.104 0.231 0.169 0.383 0.169 0.286 0 0.518-0.232 0.518-0.518 0-0.135-0.052-0.258-0.136-0.35l0 0zM17.555 13.586c-0.163-0.374-0.464-0.663-0.838-0.805l-0.010-0.003c-0.152-0.058-0.328-0.091-0.512-0.091-0.633 0-1.174 0.397-1.386 0.955l-0.003 0.010c-0.017 0.050-0.028 0.107-0.028 0.167 0 0.286 0.232 0.518 0.518 0.518 0.216 0 0.402-0.133 0.479-0.321l0.001-0.003c0.065-0.171 0.227-0.29 0.417-0.29 0.055 0 0.108 0.010 0.157 0.028l-0.003-0.001c0.115 0.043 0.205 0.129 0.252 0.239l0.001 0.003c0.081 0.187 0.264 0.316 0.477 0.316 0.286 0 0.518-0.232 0.518-0.518 0-0.073-0.015-0.143-0.043-0.206l0.001 0.003zM20.894 8.998c-0.094-0.094-0.223-0.152-0.366-0.152s-0.273 0.058-0.367 0.152l-0.488 0.49c-0.094 0.094-0.151 0.223-0.151 0.366 0 0.286 0.232 0.518 0.518 0.518 0.143 0 0.273-0.058 0.367-0.152l0.488-0.49c0.094-0.094 0.151-0.223 0.151-0.366s-0.058-0.273-0.152-0.367v0zM17.67 15.686h-0.691c-0.286 0-0.518 0.232-0.518 0.518s0.232 0.518 0.518 0.518v0h0.691c0.286 0 0.518-0.232 0.518-0.518s-0.232-0.518-0.518-0.518v0zM22.965 15.686h-0.691c-0.286 0-0.518 0.232-0.518 0.518s0.232 0.518 0.518 0.518v0h0.691c0.286 0 0.518-0.232 0.518-0.518s-0.232-0.518-0.518-0.518v0z"></path>
<path d="M36.474 25.027l-0.135-0.728c-0.088-0.46-0.487-0.803-0.966-0.803-0.063 0-0.125 0.006-0.185 0.017l0.006-0.001-2.746 0.505 1.243-0.832c0.264-0.178 0.436-0.477 0.436-0.815 0-0.177-0.047-0.343-0.129-0.486l0.003 0.005-0.376-0.666c-0.131-0.227-0.343-0.395-0.596-0.465l-0.007-0.002c-0.076-0.021-0.162-0.033-0.252-0.033-0.046 0-0.090 0.003-0.134 0.009l0.005-0.001c0.139-0.764 0.21-1.545 0.21-2.34 0-0.353-0.212-0.656-0.515-0.79 0.197-0.455 0.311-0.985 0.311-1.542 0-0.527-0.103-1.031-0.289-1.491l0.010 0.027c-0.065-0.162-0.19-0.287-0.347-0.351l-0.004-0.002c-0.433-0.178-0.936-0.282-1.463-0.282-0.068 0-0.136 0.002-0.203 0.005l0.009-0c-0.075-1.45-1.268-2.597-2.729-2.6h-0c-0.193 0-0.38 0.021-0.561 0.058 0.038-0.213 0.059-0.457 0.059-0.707 0-0.566-0.11-1.107-0.311-1.602l0.010 0.029c-0.066-0.165-0.194-0.294-0.354-0.36l-0.004-0.002c-0.466-0.192-1.008-0.303-1.576-0.303-0.001 0-0.001 0-0.002 0h0c-0.002 0-0.005 0-0.007 0-0.84 0-1.623 0.245-2.281 0.667l0.017-0.010c-0.268-0.764-0.685-1.417-1.219-1.952l0 0c-0.158-0.16-0.378-0.258-0.62-0.258-0.001 0-0.002 0-0.003 0h0c-0.235 0-0.456 0.091-0.623 0.258l-2.508 2.514c-0.458-0.411-1.067-0.662-1.735-0.662-0.161 0-0.318 0.015-0.47 0.042l0.016-0.002c-0.56 0.101-1.046 0.367-1.419 0.745l-0 0c-0.334-0.164-0.726-0.26-1.141-0.26-0.158 0-0.312 0.014-0.462 0.040l0.016-0.002c-0.118 0.020-0.233 0.049-0.345 0.084v-1.937c-0.001-1.334-1.069-2.418-2.396-2.444l-0.002-0v-1.099c0.409-0.073 0.715-0.426 0.716-0.85v-2.49c-0.001-0.477-0.387-0.863-0.864-0.863h-4.213c-0.477 0.001-0.863 0.387-0.863 0.863v2.49c0.001 0.424 0.307 0.777 0.711 0.849l0.005 0.001v1.098c-1.33 0.027-2.398 1.111-2.398 2.445v15.121c-1.035 0.934-1.679 2.238-1.679 3.679 0 2.835 2.489 5.142 5.548 5.142l20.736-0.006c0.001 0 0.002 0 0.003 0 0.731 0 1.385-0.33 1.82-0.85l0.003-0.004c0.441-0.528 0.629-1.213 0.52-1.889l4.142 0.744c0.053 0.010 0.114 0.016 0.176 0.016 0.214 0 0.413-0.069 0.574-0.186l-0.003 0.002c0.215-0.153 0.361-0.392 0.4-0.653l0.112-0.753c0.007-0.043 0.011-0.093 0.011-0.144 0-0.465-0.323-0.854-0.756-0.955l-0.007-0.001-1.46-0.335 2.744-0.504c0.264-0.049 0.487-0.198 0.631-0.406l0.002-0.003c0.148-0.216 0.204-0.477 0.156-0.734zM30.552 14.997c0.312 0 0.619 0.049 0.913 0.147 0.093 0.273 0.146 0.588 0.146 0.914 0 0.541-0.146 1.047-0.401 1.482l0.008-0.014h-1.396l0.445-0.446c0.089-0.093 0.143-0.219 0.143-0.358 0-0.286-0.232-0.518-0.518-0.518-0.139 0-0.266 0.055-0.359 0.144l0-0-0.236 0.236c-0.115-0.373-0.307-0.694-0.558-0.958l0.001 0.001c0.49-0.393 1.119-0.63 1.804-0.63 0.002 0 0.004 0 0.007 0h-0zM27.63 12.401c0.938 0.002 1.697 0.763 1.697 1.701 0 0 0 0 0 0.001v-0c0 0.017-0.001 0.035-0.002 0.052-0.576 0.191-1.070 0.492-1.481 0.879l0.002-0.002c-0.052-0.021-0.121-0.045-0.192-0.065l-0.017-0.004c-0.152-0.809-0.692-1.465-1.416-1.775l-0.016-0.006c0.305-0.471 0.828-0.779 1.424-0.78h0zM24.892 9.515c0.352 0 0.698 0.057 1.031 0.17 0.107 0.309 0.169 0.665 0.169 1.035 0 0.492-0.11 0.959-0.306 1.377l0.008-0.020c-0.277 0.253-0.501 0.559-0.657 0.903l-0.007 0.017c-0.527 0.032-1.002 0.228-1.382 0.537l0.004-0.004c-0.115-0.207-0.244-0.385-0.393-0.545l0.002 0.002 1.188-1.191c0.094-0.094 0.151-0.223 0.151-0.366 0-0.286-0.232-0.518-0.518-0.518-0.143 0-0.273 0.058-0.367 0.152l-1.299 1.301c-0.231-0.112-0.499-0.195-0.781-0.234l-0.014-0.002c0.131-0.656 0.445-1.225 0.885-1.666l-0 0c0.581-0.586 1.386-0.949 2.277-0.949 0.003 0 0.005 0 0.008 0h-0zM20.921 17.526h-0.449c-0.078-0.194-0.264-0.329-0.482-0.329s-0.404 0.135-0.481 0.325l-0.001 0.003h-0.528c0.048-0.077 0.077-0.171 0.077-0.271 0-0.286-0.232-0.518-0.518-0.518-0.143 0-0.273 0.058-0.367 0.152v0l-0.488 0.49c-0.041 0.042-0.076 0.090-0.101 0.144l-0.001 0.003h-1.054c-0.391-0.591-0.635-1.309-0.664-2.083l-0-0.008h8.219c-0.029 0.781-0.273 1.5-0.674 2.106l0.009-0.015h-1.097c-0.027-0.057-0.061-0.105-0.103-0.147l-0.488-0.49c-0.094-0.093-0.222-0.15-0.365-0.15-0.286 0-0.518 0.232-0.518 0.518 0 0.099 0.028 0.192 0.076 0.271l-0.001-0.002zM19.716 14.399c0.201-0.729 0.858-1.256 1.638-1.258h0c0.78 0.002 1.436 0.529 1.635 1.246l0.003 0.012h-3.276zM20.776 8.028c0.463 0.498 0.804 1.116 0.973 1.802l0.006 0.028c-0.252 0.273-0.471 0.583-0.646 0.92l-0.011 0.024c-0.077-0.048-0.17-0.077-0.27-0.077h-0.691c-0.286 0-0.518 0.232-0.518 0.518s0.232 0.518 0.518 0.518v0h0.606c-0.029 0.115-0.057 0.262-0.077 0.412l-0.002 0.022c-0.223 0.059-0.418 0.137-0.6 0.236l0.014-0.007c-0.349-0.595-0.909-1.033-1.576-1.214l-0.018-0.004-0.001-0.004c-0.044-0.249-0.116-0.472-0.215-0.679l0.007 0.016 2.503-2.509zM11.411 12.703c-0.056-0.156-0.089-0.336-0.089-0.523 0-0.873 0.708-1.581 1.581-1.581 0.355 0 0.683 0.117 0.946 0.314l-0.004-0.003c0.085 0.064 0.193 0.103 0.31 0.103 0.18 0 0.338-0.091 0.431-0.23l0.001-0.002c0.237-0.356 0.607-0.608 1.038-0.684l0.009-0.001c0.083-0.016 0.179-0.024 0.276-0.024 0.868 0 1.571 0.704 1.571 1.571 0 0.001 0 0.003 0 0.004v-0c0.001 0.268 0.206 0.492 0.473 0.515 0.579 0.051 1.072 0.415 1.301 0.929-0.302 0.359-0.514 0.804-0.597 1.292l-0.002 0.016h-2.955c-0.367 0-0.682 0.227-0.814 0.548-0.619-0.427-1.385-0.682-2.21-0.682-0.003 0-0.006 0-0.009 0h0c-0.503 0-0.996 0.095-1.465 0.282-0.161 0.065-0.286 0.191-0.349 0.348l-0.002 0.004c-0.109 0.266-0.193 0.577-0.239 0.9l-0.002 0.021c-0.185-0.209-0.315-0.471-0.366-0.76l-0.001-0.009c-0.014-0.080-0.023-0.173-0.023-0.267 0-0.632 0.371-1.178 0.908-1.431l0.010-0.004c0.179-0.084 0.301-0.263 0.301-0.47 0-0.063-0.011-0.123-0.031-0.178l0.001 0.004zM12.954 17.384l0.142 0.141h-1.245c-0.152-0.343-0.241-0.743-0.241-1.164 0-0.327 0.053-0.641 0.152-0.934l-0.006 0.021c0.272-0.093 0.586-0.147 0.912-0.147 0 0 0.001 0 0.001 0h-0c0.002 0 0.005 0 0.007 0 0.915 0 1.73 0.423 2.262 1.084l0.004 0.006c0.088 0.397 0.223 0.777 0.397 1.135h-0.781l-0.871-0.874c-0.094-0.094-0.224-0.152-0.367-0.152-0.286 0-0.518 0.232-0.518 0.518 0 0.143 0.058 0.272 0.151 0.366v0zM10.748 17.525h-1.847c0.086-0.505 0.384-0.926 0.796-1.177l0.008-0.004c0.248 0.33 0.564 0.595 0.93 0.776l0.015 0.007c0.026 0.135 0.058 0.268 0.099 0.399zM5.52 1.036h3.868v2.144h-3.868v-2.145zM8.672 4.217v1.083h-2.435v-1.083h2.435zM3.838 9.848h3.364c0.286 0 0.518-0.232 0.518-0.518s-0.232-0.518-0.518-0.518v0h-3.365v-1.065c0 0 0 0 0 0 0-0.777 0.629-1.407 1.405-1.409h4.423c0.777 0.002 1.405 0.632 1.405 1.409 0 0 0 0 0 0v0 1.065h-0.967c-0.005-0-0.011-0-0.017-0-0.286 0-0.518 0.232-0.518 0.518s0.232 0.518 0.518 0.518c0.006 0 0.012-0 0.018-0l-0.001 0h0.967v0.46c-0.486 0.475-0.788 1.137-0.788 1.869 0 0.157 0.014 0.311 0.040 0.46l-0.002-0.016 0.001 0.006c-0.69 0.478-1.135 1.266-1.135 2.158 0 0.22 0.027 0.434 0.078 0.638l-0.004-0.018c-0.266 0.149-0.494 0.329-0.689 0.54l-0.002 0.002h-4.733v-6.099zM3.838 16.982h4.132c-0.052 0.157-0.092 0.342-0.112 0.533l-0.001 0.012h-0.087c-0.477 0-0.865 0.387-0.865 0.865 0 0.822 0.076 1.63 0.225 2.42-0.136-0.011-0.293-0.018-0.453-0.018-0.002 0-0.003 0-0.005 0h0c-0.627 0-1.224 0.099-1.681 0.28-0.699 0.276-0.893 0.668-0.935 0.94-0.074 0.037-0.147 0.076-0.219 0.116v-5.146zM10.397 23.347c0.186 0.149 0.301 0.276 0.367 0.368h-0.019c-0.293 0-0.82-0.118-1.419-0.45-0.226-0.124-0.42-0.258-0.601-0.409l0.006 0.005c-0.090-0.076-0.207-0.123-0.335-0.123s-0.245 0.046-0.336 0.123l0.001-0.001c-0.166 0.14-0.371 0.28-0.594 0.404-0.599 0.331-1.126 0.45-1.419 0.45h-0.020c0.066-0.091 0.18-0.219 0.367-0.368 0.119-0.096 0.194-0.241 0.194-0.404 0-0.265-0.199-0.483-0.455-0.514l-0.003-0c-0.505-0.059-0.825-0.188-0.975-0.282 0.188-0.117 0.661-0.316 1.515-0.316 0.707 0 1.223 0.149 1.471 0.288 0.157 0.088 0.35 0.088 0.508 0 0.248-0.139 0.764-0.288 1.471-0.288 0.853 0 1.327 0.199 1.515 0.316-0.149 0.094-0.469 0.222-0.975 0.282-0.259 0.031-0.458 0.25-0.458 0.515 0 0.163 0.075 0.309 0.193 0.404l0.001 0.001zM9.361 29.652l0.018 0.096c0.062 0.333 0.191 0.638 0.373 0.904h-3.082c-2.487 0-4.511-1.841-4.511-4.106 0-1.547 0.945-2.897 2.338-3.596 0.16 0.12 0.359 0.222 0.596 0.305-0.091 0.146-0.153 0.32-0.174 0.507l-0 0.005c-0.021 0.239 0.052 0.466 0.205 0.639 0.203 0.229 0.514 0.345 0.925 0.345 0.547 0 1.265-0.217 1.921-0.58 0.151-0.083 0.294-0.171 0.427-0.264 0.134 0.092 0.277 0.181 0.428 0.264 0.656 0.363 1.374 0.58 1.921 0.58 0.411 0 0.721-0.116 0.924-0.345 0.153-0.173 0.227-0.4 0.206-0.639-0.021-0.192-0.083-0.366-0.177-0.517l0.003 0.005c0.227-0.077 0.424-0.181 0.601-0.31l-0.006 0.004c1.105 0.555 1.927 1.519 2.221 2.666l-3.664 1.392c-0.902 0.348-1.531 1.209-1.531 2.216 0 0.152 0.014 0.3 0.041 0.444l-0.002-0.015zM28.437 30.165c-0.248 0.295-0.616 0.481-1.029 0.481-0.001 0-0.002 0-0.003 0h-0.544l-0.339-1.834c-0.043-0.246-0.255-0.431-0.511-0.431-0.286 0-0.518 0.232-0.518 0.518 0 0.036 0.004 0.071 0.011 0.104l-0.001-0.003 0.305 1.646-1.782 0.001-0.23-1.241c-0.053-0.234-0.259-0.406-0.506-0.406-0.286 0-0.518 0.232-0.518 0.518 0 0.027 0.002 0.053 0.006 0.079l-0-0.003 0.195 1.052-4.147 0.002-0.312-1.684c-0.042-0.248-0.255-0.434-0.511-0.434-0.286 0-0.518 0.232-0.518 0.518 0 0.037 0.004 0.073 0.011 0.107l-0.001-0.003 0.277 1.497-6.055 0.002c-0.001 0-0.002 0-0.003 0-0.652 0-1.196-0.466-1.315-1.084l-0.001-0.008-0.019-0.096c-0.014-0.072-0.022-0.155-0.022-0.24 0-0.567 0.354-1.052 0.854-1.244l0.009-0.003 2.036-0.774 0.152 0.819c0.043 0.246 0.255 0.431 0.511 0.431 0.286 0 0.518-0.232 0.518-0.518 0-0.036-0.004-0.071-0.011-0.104l0.001 0.003-0.186-1.004 3.023-1.148c0.197-0.076 0.334-0.264 0.334-0.485 0-0.286-0.232-0.518-0.518-0.518-0.066 0-0.129 0.012-0.187 0.035l0.004-0.001-1.406 0.534c-0.395-1.397-1.409-2.564-2.753-3.233-0.042-0.271-0.236-0.664-0.935-0.94-0.458-0.181-1.054-0.28-1.681-0.28-0.431 0-0.843 0.048-1.207 0.135v-0.313c-0.001-0.286-0.233-0.517-0.518-0.517-0.121 0-0.232 0.041-0.321 0.111l0.001-0.001c-0.078-0.489-0.127-1.058-0.135-1.637l-0-0.009h16.875c0.286 0 0.518-0.232 0.518-0.518s-0.232-0.518-0.518-0.518v0h-0.212c0.33-0.679 0.517-1.441 0.517-2.246-0-0.456-0.347-0.831-0.792-0.876l-0.004-0c0.244-0.232 0.575-0.374 0.939-0.374 0.002 0 0.004 0 0.006 0h-0c0.001 0 0.001 0 0.002 0 0.756 0 1.369 0.613 1.369 1.369 0 0.001 0 0.002 0 0.003v-0c0 0.268 0.205 0.492 0.473 0.515 0.623 0.057 1.122 0.523 1.23 1.124l0.001 0.008c0.028 0.163 0.025 0.323-0.003 0.477h-0.556c-0.286 0-0.518 0.232-0.518 0.518s0.232 0.518 0.518 0.518h4.026c-0.013 0.993-0.144 1.948-0.381 2.862l0.018-0.083-2.808 1.658c-0.297-1-1.207-1.717-2.285-1.717-0.304 0-0.596 0.057-0.863 0.161l0.016-0.006-5.783 2.197c-0.197 0.076-0.334 0.264-0.334 0.485 0 0.286 0.232 0.518 0.518 0.518 0.066 0 0.129-0.012 0.187-0.035l-0.004 0.001 0.762-0.29 0.237 1.277c0.039 0.251 0.253 0.442 0.513 0.442 0.286 0 0.518-0.232 0.518-0.518 0-0.040-0.004-0.079-0.013-0.116l0.001 0.003-0.271-1.462 4.037-1.533c0.142-0.056 0.307-0.088 0.479-0.088 0.242 0 0.468 0.064 0.664 0.175l-0.007-0.003c0.348 0.195 0.589 0.531 0.661 0.921l1.048 5.659c0.014 0.073 0.022 0.157 0.022 0.243 0 0.325-0.117 0.623-0.311 0.854l0.002-0.002zM30.285 26.109c-0.243 0.046-0.424 0.257-0.424 0.51 0 0.245 0.17 0.45 0.398 0.504l0.004 0.001 3.858 0.885-0.097 0.647-4.472-0.804-0.699-3.774 3.895-2.299 0.325 0.575-3.285 2.196c-0.14 0.094-0.23 0.252-0.23 0.431 0 0.286 0.232 0.518 0.518 0.518 0.033 0 0.066-0.003 0.097-0.009l-0.003 0 5.16-0.948 0.115 0.62-5.159 0.948z"></path>
</svg>
