<!-- Generated by IcoMoon.io -->
<svg version="1.1" xmlns="http://www.w3.org/2000/svg" width="32" height="32" viewBox="0 0 32 32">
<title>salary</title>
<path d="M15.413 12.95c-0.109-0.039-0.22-0.079-0.331-0.12v-2.017c0.243 0.098 0.453 0.218 0.643 0.363l-0.007-0.005c0.105 0.083 0.24 0.133 0.386 0.133 0.345 0 0.625-0.28 0.625-0.625 0-0.189-0.084-0.358-0.216-0.473l-0.001-0.001c-0.404-0.316-0.882-0.558-1.404-0.695l-0.027-0.006v-0.306c-0.011-0.337-0.286-0.606-0.625-0.606s-0.614 0.269-0.625 0.605l-0 0.001v0.277c-0.085 0.018-0.152 0.035-0.218 0.055l0.018-0.005c-0.718 0.217-1.237 0.822-1.387 1.62-0.146 0.775 0.107 1.549 0.644 1.97 0.245 0.193 0.543 0.369 0.943 0.552v2.643c-0.282-0.040-0.495-0.136-0.833-0.357-0.1-0.071-0.225-0.114-0.36-0.114-0.345 0-0.625 0.28-0.625 0.625 0 0.225 0.119 0.423 0.298 0.533l0.003 0.002c0.594 0.389 1.012 0.525 1.518 0.569v0.389c0.011 0.337 0.286 0.606 0.625 0.606s0.614-0.269 0.625-0.605l0-0.001v-0.449c1.040-0.263 1.706-1.151 1.853-2.027 0.189-1.126-0.422-2.143-1.522-2.532zM13.832 12.254c-0.062-0.040-0.12-0.080-0.173-0.121-0.169-0.132-0.245-0.442-0.186-0.754 0.019-0.105 0.099-0.415 0.359-0.581v1.456zM15.702 15.275c-0.068 0.385-0.297 0.706-0.615 0.894l-0.006 0.003v-2.011c0.678 0.286 0.662 0.869 0.621 1.114z"></path>
<path d="M29.594 13.354l-3.969-2.622v-10.107c0-0.345-0.28-0.625-0.625-0.625h-15c-0.345 0-0.625 0.28-0.625 0.625v2.375h-2.375c-0.345 0-0.625 0.28-0.625 0.625v7.106l-3.969 2.623c-0.17 0.113-0.28 0.304-0.281 0.521v17.5c0 0.345 0.28 0.625 0.625 0.625h10.437c0.345 0 0.625-0.28 0.625-0.625s-0.28-0.625-0.625-0.625h-8.929l9.113-9.112 2.285 1.509c0.097 0.065 0.216 0.104 0.345 0.104s0.248-0.039 0.347-0.105l-0.002 0.001 2.285-1.509 9.112 9.113h-8.929c-0.337 0.011-0.606 0.286-0.606 0.625s0.269 0.614 0.605 0.625l0.001 0h10.438c0.345 0 0.625-0.28 0.625-0.625v-17.501c0-0.21-0.105-0.406-0.28-0.521zM28.116 13.875l-2.491 1.645v-3.29l2.491 1.645zM10.625 1.25h13.75v15.095l-1.75 1.156v-13.876c0-0.345-0.28-0.625-0.625-0.625h-11.375v-1.75zM6.375 12.23v3.29l-2.491-1.646 2.491-1.645zM3.375 29.866v-14.83l8.931 5.898-8.931 8.931zM16 21.876l-8.375-5.531v-12.095h13.75v14.075l-5.375 3.55zM28.625 15.037v14.83l-8.931-8.931 8.931-5.898z"></path>
<path d="M16 30.75c-0.165 0-0.326 0.066-0.442 0.183s-0.183 0.278-0.183 0.442c0 0.165 0.066 0.326 0.183 0.442s0.277 0.183 0.442 0.183 0.326-0.067 0.442-0.183c0.117-0.117 0.183-0.278 0.183-0.442s-0.066-0.326-0.183-0.442c-0.113-0.113-0.269-0.182-0.442-0.183h-0z"></path>
</svg>
