<!-- Generated by IcoMoon.io -->
<svg version="1.1" xmlns="http://www.w3.org/2000/svg" width="32" height="32" viewBox="0 0 32 32">
<title>tools</title>
<path d="M21.709 9.697c-0.345 0-0.625 0.28-0.625 0.625s0.28 0.625 0.625 0.625v0c0.345 0 0.625-0.28 0.625-0.625s-0.28-0.625-0.625-0.625v0zM10.353 21.053c-0.345 0-0.625 0.28-0.625 0.625s0.28 0.625 0.625 0.625v0c0.345 0 0.625-0.28 0.625-0.625s-0.28-0.625-0.625-0.625v0z"></path>
<path d="M31.254 3.845c-0.043-0.010-0.091-0.016-0.142-0.016-0.173 0-0.33 0.071-0.444 0.185l-0 0-2.591 2.611h-1.242l-1.367-1.417v-1.259l2.554-2.592c0.111-0.113 0.18-0.268 0.18-0.439 0-0.274-0.176-0.506-0.421-0.591l-0.004-0.001c-0.593-0.206-1.277-0.326-1.989-0.326-0.003 0-0.005 0-0.008 0h0c-2.035 0-3.885 0.949-5.074 2.605-1.113 1.549-1.455 3.448-0.964 5.265l-4.604 4.604-7.67-7.687v-1.509c0-0.219-0.115-0.423-0.303-0.536l-4.419-2.652c-0.092-0.056-0.203-0.089-0.321-0.089-0.173 0-0.329 0.070-0.442 0.183v0l-1.768 1.767c-0.113 0.113-0.183 0.27-0.183 0.442 0 0.119 0.033 0.23 0.091 0.324l-0.002-0.003 2.651 4.419c0.113 0.189 0.317 0.303 0.536 0.303l1.509 0.001 7.67 7.687-4.586 4.586c-1.817-0.491-3.717-0.147-5.267 0.966-1.654 1.189-2.602 3.038-2.602 5.074 0 0.682 0.11 1.354 0.326 1.995 0.086 0.25 0.318 0.426 0.592 0.426 0.174 0 0.331-0.071 0.444-0.185l0-0 2.591-2.611h1.249l1.423 1.423v1.25l-2.611 2.591c-0.114 0.113-0.185 0.27-0.185 0.444 0 0.274 0.176 0.506 0.421 0.591l0.004 0.001c0.642 0.216 1.313 0.326 1.996 0.326 2.035 0 3.884-0.949 5.073-2.603 1.114-1.55 1.457-3.45 0.966-5.267l3.683-3.683 0.844 0.916-0.387 0.387c-0.109 0.112-0.177 0.266-0.177 0.436 0 0.345 0.28 0.625 0.625 0.625 0.17 0 0.323-0.067 0.436-0.177l0.351-0.351 7.934 8.618c0.679 0.679 1.616 1.099 2.652 1.099s1.973-0.42 2.652-1.099l0-0c0.677-0.679 1.096-1.617 1.096-2.652s-0.419-1.972-1.096-2.652l0 0-0.020-0.019-8.613-7.901 0.347-0.347c0.113-0.113 0.183-0.269 0.183-0.442 0-0.345-0.28-0.625-0.625-0.625-0.173 0-0.329 0.070-0.442 0.183v0l-0.385 0.385-0.918-0.843 3.701-3.701c0.526 0.141 1.069 0.211 1.619 0.211 3.446 0 6.25-2.803 6.25-6.249 0-0.683-0.11-1.354-0.326-1.996-0.069-0.206-0.24-0.36-0.451-0.409zM5.518 6.371c-0.112-0.11-0.265-0.177-0.434-0.177-0.003 0-0.006 0-0.009 0h-1.412l-2.219-3.705 1.077-1.078 3.697 2.219v1.414c0 0.166 0.066 0.324 0.183 0.441l7.854 7.871-0.884 0.884-7.853-7.87zM21.415 18.562l8.642 7.928c0.452 0.452 0.732 1.077 0.732 1.768 0 1.381-1.119 2.5-2.5 2.5-0.691 0-1.316-0.28-1.768-0.733v0l-7.941-8.627 2.837-2.837zM20.494 17.717l-2.762 2.762-0.844-0.917 2.688-2.688 0.918 0.843zM25.781 11.25c-0.002 0-0.003 0-0.005 0-0.57 0-1.117-0.095-1.627-0.271l0.035 0.011c-0.059-0.021-0.128-0.033-0.199-0.033-0.173 0-0.329 0.070-0.442 0.183v0l-12.37 12.371c-0.113 0.113-0.183 0.269-0.183 0.442 0 0.071 0.012 0.14 0.034 0.204l-0.001-0.004c0.52 1.543 0.271 3.189-0.682 4.515-0.907 1.266-2.374 2.082-4.031 2.082-0.009 0-0.019-0-0.028-0h0.001c-0.183 0-0.365-0.010-0.545-0.029l1.985-1.97c0.118-0.117 0.185-0.277 0.185-0.443v-1.768c0-0.166-0.066-0.325-0.183-0.442l-1.789-1.789c-0.113-0.113-0.269-0.183-0.442-0.183-0 0-0 0-0 0h-1.769c-0.166 0-0.326 0.066-0.443 0.185l-1.97 1.985c-0.019-0.163-0.029-0.351-0.029-0.542 0-0.001 0-0.002 0-0.003v0c-0-0.008-0-0.018-0-0.027 0-1.657 0.815-3.123 2.067-4.020l0.015-0.010c1.327-0.953 2.973-1.202 4.515-0.682 0.225 0.076 0.474 0.018 0.642-0.15l12.371-12.371c0.168-0.168 0.226-0.416 0.15-0.641-0.52-1.543-0.272-3.188 0.681-4.514 0.907-1.267 2.374-2.083 4.032-2.083 0.009 0 0.019 0 0.028 0h-0.001c0.189 0 0.376 0.010 0.562 0.031l-1.944 1.973c-0.115 0.117-0.179 0.274-0.179 0.439v1.768c0 0.162 0.063 0.318 0.175 0.434l1.727 1.789c0.118 0.123 0.28 0.191 0.45 0.191h1.768c0.167 0 0.326-0.066 0.444-0.185l1.969-1.985c0.019 0.18 0.029 0.362 0.029 0.545 0 2.757-2.243 5-5 5z"></path>
<path d="M19.499 11.647l-7.821 7.822c-0.109 0.112-0.177 0.266-0.177 0.436 0 0.345 0.28 0.625 0.625 0.625 0.17 0 0.323-0.067 0.436-0.177l7.821-7.821c0.113-0.113 0.183-0.269 0.183-0.442 0-0.345-0.28-0.625-0.625-0.625-0.173 0-0.329 0.070-0.442 0.183v0zM27.397 28.25c0.113 0.113 0.269 0.182 0.441 0.182 0.345 0 0.625-0.28 0.625-0.625 0-0.173-0.070-0.33-0.184-0.443l-5.634-5.615c-0.112-0.109-0.266-0.176-0.435-0.176-0.345 0-0.625 0.28-0.625 0.625 0 0.17 0.068 0.324 0.178 0.437l-0-0 5.634 5.615z"></path>
</svg>
