<!-- Generated by IcoMoon.io -->
<svg version="1.1" xmlns="http://www.w3.org/2000/svg" width="32" height="32" viewBox="0 0 32 32">
<title>ufo</title>
<path d="M31.996 22.334c-0.956-7.667-8.11-8.803-10.129-8.971v-6.963c0-0.048-0.067-4.8-5.867-4.8s-5.867 4.752-5.867 4.8v6.963c-2.019 0.167-9.17 1.303-10.129 8.97 0 0.011-0.004 0.053-0.004 0.066v2.133c0 0.295 0.239 0.534 0.533 0.534h2.667v1.066h-1.6c-0.294 0-0.533 0.239-0.533 0.533 0 0 0 0 0 0.001v-0c0 1.291 0.78 3.733 3.733 3.733s3.733-2.442 3.733-3.734c0-0.294-0.239-0.533-0.533-0.533v0h-1.6v-1.066h8v1.066h-1.6c-0.294 0-0.533 0.239-0.533 0.533 0 0 0 0 0 0.001v-0c0 1.291 0.78 3.733 3.733 3.733s3.733-2.442 3.733-3.734c0-0.294-0.239-0.533-0.533-0.533v0h-1.6v-1.066h8v1.066h-1.6c-0.294 0-0.533 0.239-0.533 0.533 0 0 0 0 0 0.001v-0c0 1.291 0.78 3.733 3.733 3.733s3.733-2.442 3.733-3.734c0-0.294-0.239-0.533-0.533-0.533v0h-1.6v-1.066h2.667c0.294 0 0.533-0.239 0.533-0.533 0-0 0-0 0-0.001v0-2.133c0-0.013 0-0.054-0.004-0.066zM11.2 6.4c0-0.153 0.053-3.734 4.8-3.734 4.714 0 4.8 3.583 4.8 3.734v6.933h-1.067v-3.2h-1.066v3.2h-7.467v-6.933zM6.187 15.434c1.315-0.593 2.846-0.967 4.455-1.033l0.025-0.001h10.666c1.634 0.067 3.165 0.441 4.558 1.066l-0.078-0.031c2.656 1.12 4.581 3.508 5.027 6.385l0.006 0.047h-29.692c0.452-2.924 2.377-5.312 4.979-6.412l0.054-0.020zM4.8 29.333c-0.055 0.004-0.119 0.007-0.184 0.007-1.243 0-2.27-0.927-2.426-2.128l-0.001-0.012h5.219c-0.164 1.213-1.193 2.139-2.438 2.139-0.060 0-0.119-0.002-0.177-0.006l0.008 0zM5.333 26.133h-1.066v-1.066h1.066v1.066zM16 29.333c-0.055 0.004-0.119 0.007-0.184 0.007-1.243 0-2.27-0.927-2.426-2.128l-0.001-0.012h5.219c-0.164 1.213-1.193 2.139-2.438 2.139-0.060 0-0.119-0.002-0.177-0.006l0.008 0zM16.533 26.133h-1.066v-1.066h1.066v1.066zM27.2 29.333c-0.056 0.005-0.121 0.007-0.187 0.007-1.243 0-2.27-0.927-2.425-2.128l-0.001-0.012h5.221c-0.164 1.213-1.193 2.139-2.438 2.139-0.060 0-0.119-0.002-0.177-0.006l0.008 0zM27.733 26.133h-1.066v-1.066h1.066v1.066zM30.933 24h-29.866v-1.067h29.866v1.067z"></path>
<path d="M16 15.467c-1.473 0-2.667 1.194-2.667 2.667s1.194 2.667 2.667 2.667v0c1.473 0 2.667-1.194 2.667-2.667s-1.194-2.667-2.667-2.667v0zM16 19.734c-0.884 0-1.6-0.716-1.6-1.6s0.716-1.6 1.6-1.6v0c0.884 0 1.6 0.716 1.6 1.6s-0.716 1.6-1.6 1.6v0z"></path>
<path d="M17.067 18.133c0 0.589-0.478 1.067-1.067 1.067s-1.067-0.478-1.067-1.067v0c0-0.589 0.478-1.067 1.067-1.067s1.067 0.478 1.067 1.067v0zM18.667 8h1.066v1.067h-1.066v-1.067zM18.667 6.4v0.533h1.066v-0.533c0-0.273-0.107-2.667-3.733-2.667v1.067c2.474 0 2.667 1.226 2.667 1.6zM11.2 17.6h1.067v1.066h-1.067v-1.066zM9.067 17.6h1.066v1.066h-1.066v-1.066zM19.733 17.6h1.067v1.066h-1.067v-1.066zM21.867 17.6h1.066v1.066h-1.066v-1.066z"></path>
</svg>
